# xmcd
#
# Track frame offsets:
#	150
#	13228
#	23196
#	35170
#	47264
#	56180
#	65373
#	75724
#	87937
#	101576
#	110348
#	122494
#	136376
#	192388
#	201285
#
# Disc length: 2830 seconds
#
# Revision: 0
# Processed by: cddbd v1.5.2PL0 Copyright (c) Steve Scherf et al.
# Submitted via: EasyCDDAExtractor 2010.3.0.0
#
DISCID=ce0b0c0f
DTITLE=Gordon Luke - Collector's Classic
DYEAR=1900
DGENRE=
TTITLE0=Dark Hollow
TTITLE1=You May Be Someone
TTITLE2=Eight Years In Atlanta
TTITLE3=When It's Time
TTITLE4=Threshold To Heaven
TTITLE5=Love's Fantasy
TTITLE6=Baby's Gone
TTITLE7=Let This Kiss Bid You Goodbye
TTITLE8=Just Doin' What's Right
TTITLE9=Big New Dance
TTITLE10=Married Life
TTITLE11=Goin' Crazy
TTITLE12=Hank Williams' Memorial 1954-55
TTITLE13=Foggy Morning
TTITLE14=My Heart My World
EXTD=
EXTT0=
EXTT1=
EXTT2=
EXTT3=
EXTT4=
EXTT5=
EXTT6=
EXTT7=
EXTT8=
EXTT9=
EXTT10=
EXTT11=
EXTT12=
EXTT13=
EXTT14=
PLAYORDER=
